<svg id="visual" viewBox="0 0 900 450" width="900" height="450" xmlns="http://www.w3.org/2000/svg" xmlns:xlink="http://www.w3.org/1999/xlink" version="1.1"><path d="M0 24L53 28L106 37L159 28L212 33L265 42L318 42L371 46L424 33L476 37L529 37L582 46L635 28L688 24L741 28L794 24L847 33L900 37L900 0L847 0L794 0L741 0L688 0L635 0L582 0L529 0L476 0L424 0L371 0L318 0L265 0L212 0L159 0L106 0L53 0L0 0Z" fill="#c5f2e9"></path><path d="M0 69L53 69L106 82L159 69L212 105L265 105L318 91L371 82L424 69L476 91L529 105L582 87L635 73L688 87L741 69L794 69L847 78L900 109L900 35L847 31L794 22L741 26L688 22L635 26L582 44L529 35L476 35L424 31L371 44L318 40L265 40L212 31L159 26L106 35L53 26L0 22Z" fill="#aaded6"></path><path d="M0 172L53 145L106 249L159 190L212 177L265 244L318 145L371 190L424 190L476 217L529 195L582 177L635 208L688 159L741 154L794 190L847 141L900 195L900 107L847 76L794 67L741 67L688 85L635 71L582 85L529 103L476 89L424 67L371 80L318 89L265 103L212 103L159 67L106 80L53 67L0 67Z" fill="#8fcbc4"></path><path d="M0 213L53 195L106 280L159 222L212 199L265 267L318 177L371 213L424 226L476 249L529 217L582 213L635 253L688 190L741 199L794 244L847 186L900 217L900 193L847 139L794 188L741 152L688 157L635 206L582 175L529 193L476 215L424 188L371 188L318 143L265 242L212 175L159 188L106 247L53 143L0 170Z" fill="#74b8b2"></path><path d="M0 276L53 240L106 334L159 276L212 235L265 339L318 262L371 298L424 294L476 294L529 258L582 298L635 307L688 253L741 285L794 330L847 271L900 267L900 215L847 184L794 242L741 197L688 188L635 251L582 211L529 215L476 247L424 224L371 211L318 175L265 265L212 197L159 220L106 278L53 193L0 211Z" fill="#58a5a1"></path><path d="M0 411L53 397L106 420L159 415L212 388L265 415L318 402L371 402L424 406L476 393L529 415L582 402L635 393L688 388L741 406L794 406L847 402L900 393L900 265L847 269L794 328L741 283L688 251L635 305L582 296L529 256L476 292L424 292L371 296L318 260L265 337L212 233L159 274L106 332L53 238L0 274Z" fill="#389290"></path><path d="M0 451L53 451L106 451L159 451L212 451L265 451L318 451L371 451L424 451L476 451L529 451L582 451L635 451L688 451L741 451L794 451L847 451L900 451L900 391L847 400L794 404L741 404L688 386L635 391L582 400L529 413L476 391L424 404L371 400L318 400L265 413L212 386L159 413L106 418L53 395L0 409Z" fill="#008080"></path></svg>